<?xml version="1.0" encoding="utf-8"?>
<!-- Generator: Adobe Illustrator 20.1.0, SVG Export Plug-In . SVG Version: 6.00 Build 0)  -->
<svg version="1.1" id="Layer_1" xmlns="http://www.w3.org/2000/svg" xmlns:xlink="http://www.w3.org/1999/xlink" x="0px" y="0px"
	 viewBox="0 0 450 100" style="enable-background:new 0 0 450 100;" xml:space="preserve">
<style type="text/css">
	.st0{fill:#D5B2D4;}
	.st1{fill:#FF0FFF;}
	.st2{fill:#FFFFFF;}
</style>
<polyline class="st0" points="64.5,42 64.5,44.2 75,44.2 75,42 64.5,42 "/>
<path class="st0" d="M100.1,50.2c0,2.5-0.2,4.8-0.7,6.8h11.3c0.4-2,0.6-4,0.6-6.2c0-1.6-0.1-3.1-0.3-4.5H99.9
	C100,47.5,100.1,48.8,100.1,50.2z"/>
<rect x="64.5" y="61.2" class="st0" width="10.6" height="5.2"/>
<polyline class="st0" points="75,46.2 64.5,46.2 64.5,57 75,57 75,46.2 "/>
<path class="st0" d="M109.5,61.2H97.9c-0.7,1.4-1.5,2.5-2.6,3.6c-0.6,0.6-1.2,1.1-1.8,1.6h13.3C107.9,64.8,108.8,63.1,109.5,61.2"/>
<path class="st0" d="M75,40.8v-9.5h9.8c4.6,0,8.3,1.8,11.1,5.5c1,1.2,1.7,2.6,2.4,4h11.5c-1.2-3.5-3-6.6-5.5-9.4
	c-4.7-5.2-11-7.8-18.7-7.8h-21v17.2L75,40.8"/>
<path class="st0" d="M90.2,68.4c-2,0.9-4.2,1.3-6.5,1.3H75v-1.3H64.5v9.3h18.7c9,0,16-2.6,20.8-7.7c0.5-0.5,0.9-1,1.3-1.5L90.2,68.4
	"/>
<path class="st0" d="M98.8,42c0.3,0.7,0.5,1.5,0.7,2.3h11.2c-0.2-0.8-0.3-1.5-0.6-2.3H98.8z"/>
<polyline class="st0" points="120.4,45.8 120.4,56.5 130.7,56.5 130.7,45.8 120.4,45.8 "/>
<polyline class="st0" points="130.7,60.8 120.4,60.8 120.4,66 130.7,66 130.7,60.8 "/>
<polyline class="st0" points="120.4,41.5 120.4,43.8 130.7,43.8 130.7,41.5 120.4,41.5 "/>
<polyline class="st0" points="130.7,40.4 130.7,23.2 120.4,23.2 120.4,40.4 130.7,40.4 "/>
<polyline class="st0" points="120.4,68 120.4,77.2 130.7,77.2 130.7,68 120.4,68 "/>
<path class="st0" d="M173.3,64c0,1.1-0.3,2-0.8,2.9h10.3c0.5-1.5,0.7-3.2,0.7-5v-0.2H173C173.2,62.5,173.3,63.2,173.3,64"/>
<g>
	<path class="st0" d="M149.7,63.1l-9.4,2c0.2,0.6,0.4,1.2,0.6,1.8h10.5C150.5,65.9,150,64.6,149.7,63.1z"/>
</g>
<path class="st0" d="M148.7,51.1c1.7,1.2,4.3,2.2,7.8,3.1l10.3,2.7c0.6,0.2,1.2,0.3,1.7,0.5H183c-0.5-1.6-1.2-3.2-2.2-4.6
	c-1.9-2.7-5.5-4.7-10.9-6.1h-25C145.9,48.6,147.1,50,148.7,51.1"/>
<path class="st0" d="M154.4,41.3c-0.9-1-1.4-2.1-1.4-3.5c0-2,0.8-3.6,2.4-4.8c1.6-1.3,3.9-1.9,6.9-1.9c5.2,0,8.5,2,9.9,6.1l9.2-2.3
	c-1-3.7-3.3-6.6-6.9-8.6c-3.6-2-7.7-3-12.4-3c-5.6,0-10.1,1.5-13.7,4.4s-5.3,6.8-5.3,11.6c0,0.7,0,1.4,0.1,2L154.4,41.3"/>
<path class="st0" d="M170.8,68.9c-0.1,0.1-0.2,0.1-0.2,0.2c-1.8,1.4-4.5,2.1-7.9,2.1c-4,0-7.1-0.8-9.2-2.2h-11.7
	c1.5,2.9,3.6,5.1,6.5,6.7c4,2.2,8.6,3.4,14,3.4c6.3,0,11.5-1.5,15.4-4.6c2-1.5,3.5-3.4,4.5-5.5h-11.4"/>
<path class="st0" d="M155.8,42.5h-12.4c0.2,0.8,0.4,1.5,0.6,2.3h18l-1.4-0.4C158.6,43.9,157,43.2,155.8,42.5"/>
<polyline class="st0" points="225.8,60.8 216.1,60.8 218,66 227.8,66 225.8,60.8 "/>
<path class="st0" d="M231.2,45.8H219c-1.6,1-3.8,1.5-6.6,1.5h-11.8v-1.5H191v10.8h9.5V55h13.4l0.6,1.5h9.7l-1.2-3.2
	C227,51.7,229.7,49.2,231.2,45.8"/>
<g>
	<rect x="191" y="60.8" class="st0" width="9.5" height="5.2"/>
</g>
<polyline class="st0" points="200.6,41.5 191,41.5 191,43.8 200.6,43.8 200.6,41.5 "/>
<path class="st0" d="M200.6,40.4V31h12.6c3,0,5.3,0.7,6.9,2.2c1.6,1.5,2.5,3.4,2.5,5.8c0,0.5,0,1-0.1,1.5h10c0-0.4,0-0.9,0-1.4
	c0-4.7-1.5-8.5-4.5-11.4s-7.7-4.4-14-4.4h-23v17.2h9.6"/>
<polyline class="st0" points="218.7,68 222.1,77.2 232.2,77.2 228.6,68 218.7,68 "/>
<path class="st0" d="M222.2,41.5c-0.2,0.8-0.6,1.6-1.1,2.3h10.7c0.2-0.7,0.3-1.5,0.4-2.3H222.2"/>
<g>
	<rect x="191" y="68" class="st0" width="9.5" height="9.3"/>
</g>
<g>
	<path class="st0" d="M254,61.5h-10.6c0.1,1.9,0.4,3.6,0.8,5.2h11.6C254.8,65.4,254.2,63.7,254,61.5z"/>
</g>
<path class="st0" d="M283,61.5h-8.2c-0.3,2.2-0.8,4-1.7,5.2h9.2C282.6,65.2,282.9,63.4,283,61.5"/>
<polyline class="st0" points="243.3,42.2 243.3,44.5 253.8,44.5 253.8,42.2 243.3,42.2 "/>
<polyline class="st0" points="243.3,46.5 243.3,57.2 253.8,57.2 253.8,46.5 243.3,46.5 "/>
<polyline class="st0" points="283.1,41.1 283.1,23.9 274.9,23.9 274.9,41.1 283.1,41.1 "/>
<path class="st0" d="M270.8,68.7c-1.7,1-3.9,1.5-6.5,1.5c-2.3,0-4.4-0.5-6.2-1.5h-13.3c0.2,0.4,0.3,0.8,0.5,1.2
	c1.3,2.8,3.5,4.9,6.5,6.5s6.8,2.4,11.5,2.4c4.6,0,8.5-0.9,11.7-2.8c3.2-1.8,5.3-4,6.5-6.6c0.1-0.3,0.2-0.5,0.3-0.8L270.8,68.7"/>
<polyline class="st0" points="274.9,46.5 274.9,57.2 283.1,57.2 283.1,46.5 274.9,46.5 "/>
<polyline class="st0" points="253.8,41.1 253.8,23.9 243.3,23.9 243.3,41.1 253.8,41.1 "/>
<polyline class="st0" points="274.9,42.2 274.9,44.5 283.1,44.5 283.1,42.2 274.9,42.2 "/>
<polyline class="st0" points="362.3,45.8 362.3,56.5 373.3,56.5 373.3,45.8 362.3,45.8 "/>
<polyline class="st0" points="373.3,60.8 362.3,60.8 362.3,66 373.3,66 373.3,60.8 "/>
<polyline class="st0" points="362.3,40.4 373.3,40.4 373.3,31.6 388.5,31.6 388.5,23.2 347.1,23.2 347.1,31.6 362.3,31.6 
	362.3,40.4 "/>
<polyline class="st0" points="362.3,68 362.3,77.2 373.3,77.2 373.3,68 362.3,68 "/>
<polyline class="st0" points="362.3,41.5 362.3,43.8 373.3,43.8 373.3,41.5 362.3,41.5 "/>
<path class="st0" d="M324.2,46.1c-1.4,1.1-3.2,1.7-5.5,1.7h-10.2v-1.7h-8.6v10.8h8.6v-0.7h11.9c4.5,0,8.2-1.5,11.1-4.6
	c1.5-1.6,2.6-3.4,3.3-5.5L324.2,46.1"/>
<polyline class="st0" points="308.5,61.2 299.9,61.2 299.9,66.4 308.5,66.4 308.5,61.2 "/>
<polyline class="st0" points="308.5,41.9 299.9,41.9 299.9,44.2 308.5,44.2 308.5,41.9 "/>
<path class="st0" d="M326.7,41.9c-0.2,0.8-0.4,1.6-0.8,2.3h9.6c0.2-0.7,0.3-1.5,0.4-2.3H326.7"/>
<polyline class="st0" points="299.9,68.3 299.9,77.6 308.5,77.6 308.5,68.3 299.9,68.3 "/>
<path class="st0" d="M308.5,40.8v-9.1h9.4c3.4,0,5.7,0.8,7,2.4s1.9,3.5,1.9,5.7c0,0.4,0,0.7,0,1h9c0-0.4,0-0.8,0-1.2
	c0-4.3-1.3-8.1-4-11.3c-2.7-3.2-6.8-4.8-12.4-4.8h-19.5v17.2L308.5,40.8"/>
<path class="st1" d="M87.3,31.5c0.5,0.2,1.1,0.4,1.6,0.6l0.1-0.2C88.4,31.7,87.8,31.6,87.3,31.5 M81.6,21.8h-20v36.9H71V57h-6.5
	V46.2H71v-2h-6.5V42H71v-1.1h-6.5V23.7h21c2.1,0,4.2,0.2,6.1,0.6l0.1-0.2c-1.5-0.6-3.1-1.1-4.8-1.6C85.3,22.1,83.5,21.8,81.6,21.8"
	/>
<polyline class="st2" points="71,42 64.5,42 64.5,44.2 71,44.2 71,42 "/>
<polyline class="st2" points="71,46.2 64.5,46.2 64.5,57 71,57 71,46.2 "/>
<path class="st2" d="M85.5,23.6h-21v17.2H71V30.5h10c2.2,0,4.3,0.3,6.3,1c0.6,0.1,1.1,0.2,1.7,0.4l2.7-7.6
	C89.7,23.8,87.6,23.6,85.5,23.6"/>
<path class="st1" d="M87.8,77.4c-1.5,0.2-3,0.2-4.6,0.2h-8V78h6.4C83.7,78,85.8,77.8,87.8,77.4 M97.5,62h-1.7
	c-1.6,2.5-3.7,4.4-6.3,5.6s-5.5,1.8-8.6,1.8h-5.8v0.3h8.5c2.4,0,4.5-0.4,6.5-1.3h12.5c0.5-0.6,0.9-1.3,1.3-2H93.5
	c0.6-0.5,1.2-1,1.8-1.6C96.2,64,96.9,63,97.5,62"/>
<path class="st2" d="M106.1,62h-8.6c-0.6,1-1.3,2-2.1,2.8c-0.6,0.6-1.2,1.1-1.8,1.6H104C104.8,65.1,105.5,63.6,106.1,62"/>
<path class="st2" d="M102.6,68.4H90.2c-2,0.9-4.2,1.3-6.5,1.3h-8.5v8h8c1.6,0,3.1-0.1,4.6-0.2c3.1-0.6,6-1.8,8.7-3.4
	C98.9,72.5,100.9,70.7,102.6,68.4"/>
<polyline class="st1" points="122.2,21.8 118.3,21.8 118.3,78 128.4,78 128.4,77.2 120.4,77.2 120.4,68 128.4,68 128.4,66 120.4,66 
	120.4,60.8 128.4,60.8 128.4,56.5 120.4,56.5 120.4,45.8 128.4,45.8 128.4,43.8 120.4,43.8 120.4,41.5 128.4,41.5 128.4,40.4 
	120.4,40.4 120.4,23.2 123.6,23.2 122.2,21.8 "/>
<polyline class="st2" points="128.4,45.8 120.4,45.8 120.4,56.5 128.4,56.5 128.4,45.8 "/>
<polyline class="st2" points="128.4,60.8 120.4,60.8 120.4,66 128.4,66 128.4,60.8 "/>
<polyline class="st2" points="128.4,41.5 120.4,41.5 120.4,43.8 128.4,43.8 128.4,41.5 "/>
<polyline class="st2" points="123.6,23.2 120.4,23.2 120.4,40.4 128.4,40.4 128.4,27.7 123.6,23.2 "/>
<polyline class="st2" points="128.4,68 120.4,68 120.4,77.2 128.4,77.2 128.4,68 "/>
<path class="st1" d="M154.3,78v0.2c1.1,0.2,2.3,0.4,3.6,0.4C156.6,78.6,155.4,78.3,154.3,78 M166,56.8c1,0.5,1.7,1,2.2,1.6
	c1.1,1.2,1.6,2.6,1.6,4.1c0,2.3-0.8,4.2-2.5,5.7c-1.7,1.5-4.3,2.2-7.8,2.2c-1.1,0-2-0.1-2.8-0.3c-0.8-0.2-1.6-0.4-2.4-0.8v0.2
	c2.1,1.1,4.9,1.7,8.4,1.7c3.4,0,6.1-0.7,7.9-2.1c0.1-0.1,0.2-0.1,0.2-0.2h6.5c0.1-0.3,0.2-0.5,0.4-0.8c0.2-0.4,0.3-0.8,0.4-1.2h-5.5
	c0.5-0.9,0.8-1.9,0.8-2.9c0-0.8-0.1-1.5-0.4-2.3h5.9c0-1.5-0.2-2.9-0.6-4.2h-9.8c-0.5-0.2-1.1-0.4-1.7-0.5L166,56.8 M166.7,31.8
	c0.2,0.2,0.5,0.4,0.7,0.6c0.9,0.9,1.6,1.8,2,2.8c0.5,1,0.8,1.9,1,2.8l1.9-0.6C171.3,34.5,169.4,32.6,166.7,31.8 M159.5,21
	c-2.6,0-5.1,0.5-7.4,1.4c-2.3,0.9-4.3,2.1-6,3.7c-1.7,1.5-3,3.3-4,5.4s-1.5,4.2-1.5,6.5c0,4.2,1.2,7.5,3.6,10
	c1.2,1.2,2.6,2.3,4.3,3.2c-1.5-1.1-2.7-2.5-3.7-4.3h20.7c-0.6-0.1-1.1-0.3-1.7-0.4l-6.4-1.6h-13.3c-0.3-0.7-0.5-1.5-0.6-2.3h8.8
	c-0.4-0.3-0.7-0.6-1-0.8c-0.1-0.1-0.2-0.2-0.3-0.3h-7.7c-0.1-0.7-0.1-1.3-0.1-2c0-4.8,1.8-8.7,5.3-11.6c3.6-2.9,8.1-4.4,13.7-4.4
	c4,0,7.6,0.8,10.9,2.3c-1.4-1.3-3.2-2.3-5.3-3.2C165.4,21.5,162.7,21,159.5,21"/>
<path class="st2" d="M178.8,61.7H173c0.2,0.7,0.4,1.5,0.4,2.3c0,1.1-0.3,2-0.8,2.9h5.5C178.6,65.3,178.8,63.6,178.8,61.7
	C178.8,61.8,178.8,61.8,178.8,61.7"/>
<path class="st2" d="M165.7,46.7h-20.8c1,1.8,2.2,3.3,3.7,4.3c1.6,0.9,3.5,1.7,5.6,2.3l7.8,2c1.6,0.4,3,0.8,4,1.4l0.7,0.2
	c0.6,0.2,1.2,0.3,1.7,0.5h9.8c-0.6-2.1-1.7-3.9-3.2-5.6C172.8,49.5,169.7,47.7,165.7,46.7"/>
<path class="st2" d="M162.1,23.3c-5.6,0-10.1,1.5-13.7,4.4c-3.6,2.9-5.3,6.8-5.3,11.6c0,0.7,0,1.4,0.1,2h7.7c-0.8-1-1.2-2.4-1.2-4.2
	c0-1,0.2-1.9,0.7-2.9c0.5-0.9,1.1-1.8,2-2.5s1.9-1.3,3.1-1.8c1.2-0.5,2.5-0.7,4-0.7c1.8,0,3.3,0.3,4.6,0.8c1,0.4,1.9,0.9,2.6,1.5
	c2.7,0.9,4.6,2.7,5.5,5.5l5.9-2c-0.2-1.4-0.6-3-1.4-4.7c-0.7-1.7-1.9-3.2-3.4-4.6c-0.1-0.1-0.2-0.2-0.3-0.3
	C169.8,24.1,166.1,23.3,162.1,23.3"/>
<path class="st2" d="M177.3,68.9h-6.5c-0.1,0.1-0.2,0.1-0.2,0.2c-1.8,1.4-4.5,2.1-7.9,2.1c-3.5,0-6.3-0.6-8.4-1.7v8.6
	c1.1,0.3,2.3,0.5,3.6,0.7c0.5,0,1.1,0,1.6,0c3.2,0,6-0.5,8.4-1.4c2.4-1,4.5-2.2,6.1-3.8C175.4,72.1,176.5,70.6,177.3,68.9"/>
<path class="st2" d="M152.3,42.5h-8.8c0.2,0.8,0.4,1.5,0.6,2.3h13.5l-1.3-0.3C154.6,43.8,153.2,43.1,152.3,42.5"/>
<path class="st1" d="M213.9,55h-13.4v0.6h6.3L219,78h10.8l-0.5-0.8H222l-3.4-9.3h5.6l-1.1-2H218l-1.9-5.2h4.2l-2.4-4.2h-3.4
	L213.9,55 M216,31.2c0.5,0.3,0.9,0.6,1.3,1c1.7,1.6,2.5,3.7,2.5,6.5c0,2.7-0.8,4.9-2.5,6.5c-1,1-2.4,1.7-4,2
	c2.3-0.1,4.2-0.6,5.7-1.4h9.5c0.3-0.6,0.5-1.3,0.7-2h-8.1c0.5-0.7,0.8-1.4,1.1-2.3h7.5c0.1-0.4,0.1-0.7,0.1-1.1h-7.4
	c0.1-0.5,0.1-1,0.1-1.5c0-2.4-0.8-4.3-2.5-5.8C219,32.2,217.6,31.5,216,31.2 M212.4,21.7H190v37h10.1v-2.2H191V45.7h9.1v-2H191v-2.3
	h9.1v-1.1H191V23.1h22.9c3.1,0,5.8,0.4,8.1,1.1c-0.7-0.4-1.5-0.8-2.4-1.2C217.5,22.2,215.1,21.7,212.4,21.7"/>
<polyline class="st2" points="220.3,60.8 216.1,60.8 218,66 223.2,66 220.3,60.8 "/>
<path class="st2" d="M228.5,45.8H219c-1.4,0.9-3.3,1.3-5.7,1.4c-0.9,0.2-2,0.3-3.1,0.3h-10.1v-1.8H191v10.8h9.1v-0.9h0.4V55h13.4
	l0.6,1.5h3.4L217,55c4.1-1,7.2-3,9.4-5.9C227.3,48.1,228,47,228.5,45.8"/>
<polyline class="st2" points="200.1,41.5 191,41.5 191,43.8 200.1,43.8 200.1,41.5 "/>
<path class="st2" d="M213.9,23.2H191v17.2h9.1V29.9h10.1c2.3,0,4.2,0.5,5.7,1.4c1.7,0.3,3,1,4.1,1.9c1.6,1.5,2.5,3.4,2.5,5.8
	c0,0.5,0,1-0.1,1.5h7.4c0-0.6,0.1-1.1,0.1-1.7c0-2.4-0.4-4.6-1.2-6.6c-0.8-2.1-2-3.9-3.5-5.4c-0.9-0.9-2-1.7-3.1-2.4
	C219.8,23.6,217,23.2,213.9,23.2"/>
<polyline class="st2" points="224.3,68 218.7,68 222.1,77.2 229.4,77.2 224.3,68 "/>
<path class="st2" d="M229.7,41.5h-7.5c-0.2,0.8-0.6,1.6-1.1,2.3h8.1C229.4,43.1,229.6,42.3,229.7,41.5"/>
<path class="st1" d="M254.3,77.5v0.2c2.4,0.8,4.9,1.2,7.5,1.2c0.9,0,1.9,0,2.8-0.1c-0.4,0-0.9,0-1.3,0
	C259.8,78.7,256.8,78.3,254.3,77.5 M274.9,57.2V46.4h8.2v10.8H274.9 M274.9,44.5v-2.3h8.2v2.3H274.9 M274.9,41.1V23.9h8.2v17.2
	H274.9 M283.2,21.8h-10.1v35.5c0,4-1,7.2-2.9,9.4c-1.7,2-4.1,3.1-7.3,3.4c0.4,0,0.9,0.1,1.3,0.1c2.6,0,4.7-0.5,6.5-1.5h10
	c0.3-0.5,0.6-1.1,0.8-1.7c0-0.1,0.1-0.2,0.1-0.3H273c0.9-1.3,1.5-3,1.7-5.2h8.2l0,0c0,0.2,0,0.4,0,0.6c0.2-1.2,0.3-2.5,0.3-3.9V21.8
	"/>
<polyline class="st1" points="250.4,21.8 241.1,21.8 241.1,58.5 250.4,58.5 250.4,57.2 243.3,57.2 243.3,46.5 250.4,46.5 
	250.4,44.5 243.3,44.5 243.3,42.2 250.4,42.2 250.4,41.1 243.3,41.1 243.3,23.9 250.4,23.9 250.4,21.8 "/>
<path class="st1" d="M371.9,77.2h-9.4V78h9.4V77.2 M371.9,66h-9.4v2h9.4V66 M371.9,56.5h-9.4v4.2h9.4V56.5 M371.9,43.8h-9.4v2h9.4
	V43.8 M371.9,40.4h-9.4v1.1h9.4V40.4 M379,21.8h-34.7v8.8h2.8v-7.5H379V21.8"/>
<path class="st1" d="M335.8,41.9L335.8,41.9c-0.1,0.8-0.2,1.5-0.4,2.3h-9.6c0.4-0.7,0.7-1.4,0.8-2.3H335.8 M317.9,21.8H297v9.8h2.9
	v-8.1h19.5c5.6,0,9.7,1.6,12.4,4.8c2.7,3.2,4,6.9,4,11.3c0,0.4,0,0.8,0,1.2h-9c0-0.3,0-0.7,0-1c0-0.6-0.1-1.3-0.2-1.8
	c0,0.3,0,0.6,0,0.9c0,2.7-0.9,4.9-2.8,6.4c-1.8,1.6-4.3,2.3-7.3,2.3H315l0.3,0.3h3.3c2.3,0,4.2-0.6,5.5-1.7h10.6
	c0-0.1,0.1-0.2,0.1-0.3c0.8-2.2,1.2-4.5,1.2-7c0-2.4-0.4-4.6-1.2-6.6c-0.8-2.1-2-3.9-3.6-5.4c-1.5-1.5-3.5-2.7-5.7-3.6
	C323.4,22.3,320.8,21.8,317.9,21.8"/>
<path class="st1" d="M311.1,56.2h-2.6v0.2h2.6V56.2 M311.1,47.5h-2.6v0.3h2.6V47.5 M299.9,35.8H297V78h10.1v-0.4h-7.2v-9.3h7.2v-2
	h-7.2v-5.2h7.2v-4.2h-7.2V46.1h7.2v-2h-7.2v-2.3h7.2v-1.1h-7.2L299.9,35.8"/>
<g>
	<path class="st2" d="M283,61.5h-8.2c-0.3,2.2-0.8,4-1.7,5.2h8.7c0.6-1.4,1-3,1.2-4.6C283,61.8,283,61.7,283,61.5"/>
	<polyline class="st2" points="283.1,23.9 274.9,23.9 274.9,41.1 283.1,41.1 283.1,23.9 	"/>
	<path class="st2" d="M280.8,68.7h-10c-1.7,1-3.9,1.5-6.5,1.5c-0.5,0-0.9,0-1.3-0.1c-0.4,0-0.8,0-1.2,0c-2,0-3.9-0.5-5.5-1.4l-2,8.7
		c2.5,0.9,5.5,1.3,8.9,1.3c0.5,0,0.9,0,1.3,0c2-0.2,3.9-0.6,5.7-1.2c2.6-0.9,4.9-2.2,6.8-4C278.5,72.1,279.8,70.5,280.8,68.7"/>
	<polyline class="st2" points="283.1,46.5 274.9,46.5 274.9,57.2 283.1,57.2 283.1,46.5 	"/>
	<polyline class="st2" points="283.1,42.2 274.9,42.2 274.9,44.5 283.1,44.5 283.1,42.2 	"/>
	<polyline class="st2" points="250.4,42.2 243.3,42.2 243.3,44.5 250.4,44.5 250.4,42.2 	"/>
	<polyline class="st2" points="250.4,46.5 243.3,46.5 243.3,57.2 250.4,57.2 250.4,46.5 	"/>
	<polyline class="st2" points="250.4,23.9 243.3,23.9 243.3,41.1 250.4,41.1 250.4,23.9 	"/>
	<polyline class="st2" points="371.9,45.8 362.5,45.8 362.5,56.5 371.9,56.5 371.9,45.8 	"/>
	<polyline class="st2" points="371.9,60.8 362.5,60.8 362.5,66 371.9,66 371.9,60.8 	"/>
	<polyline class="st2" points="379,23.2 347.1,23.2 347.1,30.7 362.5,30.7 362.5,40.4 371.9,40.4 371.9,30.7 379,30.7 379,23.2 	"/>
	<polyline class="st2" points="371.9,68 362.5,68 362.5,77.2 371.9,77.2 371.9,68 	"/>
	<polyline class="st2" points="371.9,41.5 362.5,41.5 362.5,43.8 371.9,43.8 371.9,41.5 	"/>
	<path class="st2" d="M334.8,46.1h-10.6c-1.4,1.1-3.2,1.7-5.5,1.7h-3.3L322,56c1.3-0.2,2.5-0.5,3.6-1c2.3-0.9,4.2-2.1,5.7-3.7
		C332.8,49.9,334,48.2,334.8,46.1"/>
	<path class="st2" d="M335.8,41.9h-9.1c-0.2,0.8-0.4,1.6-0.8,2.3h9.6C335.6,43.4,335.7,42.7,335.8,41.9"/>
	<path class="st2" d="M319.5,23.6H300v8.1h7.2V30h9.5c3.1,0,5.5,0.8,7.3,2.4c1.6,1.4,2.6,3.3,2.7,5.6c0.1,0.6,0.2,1.2,0.2,1.8
		c0,0.4,0,0.7,0,1h9c0-0.4,0-0.8,0-1.2c0-4.3-1.3-8.1-4-11.3C329.2,25.2,325,23.6,319.5,23.6"/>
	<polyline class="st2" points="307.1,46.1 299.9,46.1 299.9,56.9 307.1,56.9 307.1,56.4 308.5,56.4 308.5,56.2 311.1,56.2 
		311.1,47.8 308.5,47.8 308.5,47.5 307.1,47.5 307.1,46.1 	"/>
	<polyline class="st2" points="307.1,61.2 299.9,61.2 299.9,66.4 307.1,66.4 307.1,61.2 	"/>
	<polyline class="st2" points="307.1,41.9 299.9,41.9 299.9,44.2 307.1,44.2 307.1,41.9 	"/>
	<polyline class="st2" points="307.1,68.3 299.9,68.3 299.9,77.6 307.1,77.6 307.1,68.3 	"/>
	<polyline class="st2" points="307.1,35.8 299.9,35.8 299.9,40.8 307.1,40.8 307.1,35.8 	"/>
</g>
</svg>
