<?xml version="1.0" encoding="utf-8"?>
<!-- Generator: Adobe Illustrator 21.0.2, SVG Export Plug-In . SVG Version: 6.00 Build 0)  -->
<svg version="1.1" id="Layer_1" xmlns="http://www.w3.org/2000/svg" xmlns:xlink="http://www.w3.org/1999/xlink" x="0px" y="0px"
	 viewBox="0 0 350 450" style="enable-background:new 0 0 350 450;" xml:space="preserve">
<style type="text/css">
	.st0{fill:#E1B3F0;}
	.st1{fill:#FF00FF;}
	.st2{fill:#FFFFFF;}
</style>
<polyline class="st0" points="16.5,405 16.5,407.2 27,407.2 27,405 16.5,405 "/>
<path class="st0" d="M52.1,413.2c0,2.5-0.2,4.8-0.7,6.8h11.3c0.4-2,0.6-4,0.6-6.2c0-1.6-0.1-3.1-0.3-4.5H51.9
	C52,410.5,52.1,411.8,52.1,413.2z"/>
<rect x="16.5" y="424.2" class="st0" width="10.6" height="5.2"/>
<polyline class="st0" points="27,409.2 16.5,409.2 16.5,420 27,420 27,409.2 "/>
<path class="st0" d="M61.5,424.2H49.9c-0.7,1.4-1.5,2.5-2.6,3.6c-0.6,0.6-1.2,1.1-1.8,1.6h13.3C59.9,427.8,60.8,426.1,61.5,424.2"/>
<path class="st0" d="M27,403.8v-9.5h9.8c4.6,0,8.3,1.8,11.1,5.5c1,1.2,1.7,2.6,2.4,4h11.5c-1.2-3.5-3-6.6-5.5-9.4
	c-4.7-5.2-11-7.8-18.7-7.8h-21v17.2H27"/>
<path class="st0" d="M42.2,431.4c-2,0.9-4.2,1.3-6.5,1.3H27v-1.3H16.5v9.3h18.7c9,0,16-2.6,20.8-7.7c0.5-0.5,0.9-1,1.3-1.5H42.2"/>
<path class="st0" d="M50.8,405c0.3,0.7,0.5,1.5,0.7,2.3h11.2c-0.2-0.8-0.3-1.5-0.6-2.3H50.8z"/>
<polyline class="st0" points="72.4,408.8 72.4,419.5 82.7,419.5 82.7,408.8 72.4,408.8 "/>
<polyline class="st0" points="82.7,423.8 72.4,423.8 72.4,429 82.7,429 82.7,423.8 "/>
<polyline class="st0" points="72.4,404.5 72.4,406.8 82.7,406.8 82.7,404.5 72.4,404.5 "/>
<polyline class="st0" points="82.7,403.4 82.7,386.2 72.4,386.2 72.4,403.4 82.7,403.4 "/>
<polyline class="st0" points="72.4,431 72.4,440.2 82.7,440.2 82.7,431 72.4,431 "/>
<path class="st0" d="M125.3,427c0,1.1-0.3,2-0.8,2.9h10.3c0.5-1.5,0.7-3.2,0.7-5l0-0.2H125C125.2,425.5,125.3,426.2,125.3,427"/>
<g>
	<path class="st0" d="M101.7,426.1l-9.4,2c0.2,0.6,0.4,1.2,0.6,1.8h10.5C102.5,428.9,102,427.6,101.7,426.1z"/>
</g>
<path class="st0" d="M100.7,414.1c1.7,1.2,4.3,2.2,7.8,3.1l10.3,2.7c0.6,0.2,1.2,0.3,1.7,0.5H135c-0.5-1.6-1.2-3.2-2.2-4.6
	c-1.9-2.7-5.5-4.7-10.9-6.1H96.9C97.9,411.6,99.1,413,100.7,414.1"/>
<path class="st0" d="M106.4,404.3c-0.9-1-1.4-2.1-1.4-3.5c0-2,0.8-3.6,2.4-4.8c1.6-1.3,3.9-1.9,6.9-1.9c5.2,0,8.5,2,9.9,6.1l9.2-2.3
	c-1-3.7-3.3-6.6-6.9-8.6c-3.6-2-7.7-3-12.4-3c-5.6,0-10.1,1.5-13.7,4.4c-3.6,2.9-5.3,6.8-5.3,11.6c0,0.7,0,1.4,0.1,2H106.4"/>
<path class="st0" d="M122.8,431.9c-0.1,0.1-0.2,0.1-0.2,0.2c-1.8,1.4-4.5,2.1-7.9,2.1c-4,0-7.1-0.8-9.2-2.2H93.8
	c1.5,2.9,3.6,5.1,6.5,6.7c4,2.2,8.6,3.4,14,3.4c6.3,0,11.5-1.5,15.4-4.6c2-1.5,3.5-3.4,4.5-5.5H122.8"/>
<path class="st0" d="M107.8,405.5H95.4c0.2,0.8,0.4,1.5,0.6,2.3H114l-1.4-0.4C110.6,406.9,109,406.2,107.8,405.5"/>
<polyline class="st0" points="177.8,423.8 168.1,423.8 170,429 179.8,429 177.8,423.8 "/>
<path class="st0" d="M183.2,408.8H171c-1.6,1-3.8,1.5-6.6,1.5h-11.8v-1.5H143v10.8h9.5V418h13.4l0.6,1.5h9.7l-1.2-3.2
	C179,414.7,181.7,412.2,183.2,408.8"/>
<g>
	<rect x="143" y="423.8" class="st0" width="9.5" height="5.2"/>
</g>
<polyline class="st0" points="152.6,404.5 143,404.5 143,406.8 152.6,406.8 152.6,404.5 "/>
<path class="st0" d="M152.6,403.4V394h12.6c3,0,5.3,0.7,6.9,2.2c1.6,1.5,2.5,3.4,2.5,5.8c0,0.5,0,1-0.1,1.5h10c0-0.4,0-0.9,0-1.4
	c0-4.7-1.5-8.5-4.5-11.4c-3-2.9-7.7-4.4-14-4.4H143v17.2H152.6"/>
<polyline class="st0" points="170.7,431 174.1,440.2 184.2,440.2 180.6,431 170.7,431 "/>
<path class="st0" d="M174.2,404.5c-0.2,0.8-0.6,1.6-1.1,2.3h10.7c0.2-0.7,0.3-1.5,0.4-2.3H174.2"/>
<g>
	<rect x="143" y="431" class="st0" width="9.5" height="9.3"/>
</g>
<g>
	<path class="st0" d="M206,424.5h-10.6c0.1,1.9,0.4,3.6,0.8,5.2h11.6C206.8,428.4,206.2,426.7,206,424.5z"/>
</g>
<path class="st0" d="M235,424.5h-8.2c-0.3,2.2-0.8,4-1.7,5.2h9.2C234.6,428.2,234.9,426.4,235,424.5"/>
<polyline class="st0" points="195.3,405.2 195.3,407.5 205.8,407.5 205.8,405.2 195.3,405.2 "/>
<polyline class="st0" points="195.3,409.5 195.3,420.2 205.8,420.2 205.8,409.5 195.3,409.5 "/>
<polyline class="st0" points="235.1,404.1 235.1,386.9 226.9,386.9 226.9,404.1 235.1,404.1 "/>
<path class="st0" d="M222.8,431.7c-1.7,1-3.9,1.5-6.5,1.5c-2.3,0-4.4-0.5-6.2-1.5h-13.3c0.2,0.4,0.3,0.8,0.5,1.2
	c1.3,2.8,3.5,4.9,6.5,6.5c3,1.6,6.8,2.4,11.5,2.4c4.6,0,8.5-0.9,11.7-2.8c3.2-1.8,5.3-4,6.5-6.6c0.1-0.3,0.2-0.5,0.3-0.8H222.8"/>
<polyline class="st0" points="226.9,409.5 226.9,420.2 235.1,420.2 235.1,409.5 226.9,409.5 "/>
<polyline class="st0" points="205.8,404.1 205.8,386.9 195.3,386.9 195.3,404.1 205.8,404.1 "/>
<polyline class="st0" points="226.9,405.2 226.9,407.5 235.1,407.5 235.1,405.2 226.9,405.2 "/>
<polyline class="st0" points="314.3,408.8 314.3,419.5 325.3,419.5 325.3,408.8 314.3,408.8 "/>
<polyline class="st0" points="325.3,423.8 314.3,423.8 314.3,429 325.3,429 325.3,423.8 "/>
<polyline class="st0" points="314.3,403.4 325.3,403.4 325.3,394.6 340.5,394.6 340.5,386.2 299.1,386.2 299.1,394.6 314.3,394.6 
	314.3,403.4 "/>
<polyline class="st0" points="314.3,431 314.3,440.2 325.3,440.2 325.3,431 314.3,431 "/>
<polyline class="st0" points="314.3,404.5 314.3,406.8 325.3,406.8 325.3,404.5 314.3,404.5 "/>
<path class="st0" d="M276.2,409.1c-1.4,1.1-3.2,1.7-5.5,1.7h-10.2v-1.7h-8.6v10.8h8.6v-0.7h11.9c4.5,0,8.2-1.5,11.1-4.6
	c1.5-1.6,2.6-3.4,3.3-5.5H276.2"/>
<polyline class="st0" points="260.5,424.2 251.9,424.2 251.9,429.4 260.5,429.4 260.5,424.2 "/>
<polyline class="st0" points="260.5,404.9 251.9,404.9 251.9,407.2 260.5,407.2 260.5,404.9 "/>
<path class="st0" d="M278.7,404.9c-0.2,0.8-0.4,1.6-0.8,2.3h9.6c0.2-0.7,0.3-1.5,0.4-2.3H278.7"/>
<polyline class="st0" points="251.9,431.3 251.9,440.6 260.5,440.6 260.5,431.3 251.9,431.3 "/>
<path class="st0" d="M260.5,403.8v-9.1h9.4c3.4,0,5.7,0.8,7,2.4c1.3,1.6,1.9,3.5,1.9,5.7c0,0.4,0,0.7,0,1h9c0-0.4,0-0.8,0-1.2
	c0-4.3-1.3-8.1-4-11.3c-2.7-3.2-6.8-4.8-12.4-4.8h-19.5v17.2H260.5"/>
<path class="st1" d="M39.3,394.5c0.5,0.2,1.1,0.4,1.6,0.6l0.1-0.2C40.4,394.7,39.8,394.6,39.3,394.5 M33.6,384.8H13.6v36.9H23V420
	h-6.5v-10.8H23v-2h-6.5V405H23v-1.1h-6.5v-17.2h21c2.1,0,4.2,0.2,6.1,0.6l0.1-0.2c-1.5-0.6-3.1-1.1-4.8-1.6
	C37.3,385.1,35.5,384.8,33.6,384.8"/>
<polyline class="st2" points="23,405 16.5,405 16.5,407.2 23,407.2 23,405 "/>
<polyline class="st2" points="23,409.2 16.5,409.2 16.5,420 23,420 23,409.2 "/>
<path class="st2" d="M37.5,386.6h-21v17.2H23v-10.3h10c2.2,0,4.3,0.3,6.3,1c0.6,0.1,1.1,0.2,1.7,0.4l2.7-7.6
	C41.7,386.8,39.6,386.6,37.5,386.6"/>
<path class="st1" d="M39.8,440.4c-1.5,0.2-3,0.2-4.6,0.2h-8v0.4h6.4C35.7,441,37.8,440.8,39.8,440.4 M49.5,425h-1.7
	c-1.6,2.5-3.7,4.4-6.3,5.6c-2.6,1.2-5.5,1.8-8.6,1.8h-5.8v0.3h8.5c2.4,0,4.5-0.4,6.5-1.3h12.5c0.5-0.6,0.9-1.3,1.3-2H45.5
	c0.6-0.5,1.2-1,1.8-1.6C48.2,427,48.9,426,49.5,425"/>
<path class="st2" d="M58.1,425h-8.6c-0.6,1-1.3,2-2.1,2.8c-0.6,0.6-1.2,1.1-1.8,1.6H56C56.8,428.1,57.5,426.6,58.1,425"/>
<path class="st2" d="M54.6,431.4H42.2c-2,0.9-4.2,1.3-6.5,1.3h-8.5v8h8c1.6,0,3.1-0.1,4.6-0.2c3.1-0.6,6-1.8,8.7-3.4
	C50.9,435.5,52.9,433.7,54.6,431.4"/>
<polyline class="st1" points="74.2,384.8 70.3,384.8 70.3,441 80.4,441 80.4,440.2 72.4,440.2 72.4,431 80.4,431 80.4,429 72.4,429 
	72.4,423.8 80.4,423.8 80.4,419.5 72.4,419.5 72.4,408.8 80.4,408.8 80.4,406.8 72.4,406.8 72.4,404.5 80.4,404.5 80.4,403.4 
	72.4,403.4 72.4,386.2 75.6,386.2 74.2,384.8 "/>
<polyline class="st2" points="80.4,408.8 72.4,408.8 72.4,419.5 80.4,419.5 80.4,408.8 "/>
<polyline class="st2" points="80.4,423.8 72.4,423.8 72.4,429 80.4,429 80.4,423.8 "/>
<polyline class="st2" points="80.4,404.5 72.4,404.5 72.4,406.8 80.4,406.8 80.4,404.5 "/>
<polyline class="st2" points="75.6,386.2 72.4,386.2 72.4,403.4 80.4,403.4 80.4,390.7 75.6,386.2 "/>
<polyline class="st2" points="80.4,431 72.4,431 72.4,440.2 80.4,440.2 80.4,431 "/>
<path class="st1" d="M106.3,441v0.2c1.1,0.2,2.3,0.4,3.6,0.4C108.6,441.6,107.4,441.3,106.3,441 M118,419.8c1,0.5,1.7,1,2.2,1.6
	c1.1,1.2,1.6,2.6,1.6,4.1c0,2.3-0.8,4.2-2.5,5.7c-1.7,1.5-4.3,2.2-7.8,2.2c-1.1,0-2-0.1-2.8-0.3c-0.8-0.2-1.6-0.4-2.4-0.8v0.2
	c2.1,1.1,4.9,1.7,8.4,1.7c3.4,0,6.1-0.7,7.9-2.1c0.1-0.1,0.2-0.1,0.2-0.2h6.5c0.1-0.3,0.2-0.5,0.4-0.8c0.2-0.4,0.3-0.8,0.4-1.2h-5.5
	c0.5-0.9,0.8-1.9,0.8-2.9c0-0.8-0.1-1.5-0.4-2.3h5.9c0-1.5-0.2-2.9-0.6-4.2h-9.8c-0.5-0.2-1.1-0.4-1.7-0.5L118,419.8 M118.7,394.8
	c0.2,0.2,0.5,0.4,0.7,0.6c0.9,0.9,1.6,1.8,2,2.8c0.5,1,0.8,1.9,1,2.8l1.9-0.6C123.3,397.5,121.4,395.6,118.7,394.8 M111.5,384
	c-2.6,0-5.1,0.5-7.4,1.4c-2.3,0.9-4.3,2.1-6,3.7c-1.7,1.5-3,3.3-4,5.4c-1,2.1-1.5,4.2-1.5,6.5c0,4.2,1.2,7.5,3.6,10
	c1.2,1.2,2.6,2.3,4.3,3.2c-1.5-1.1-2.7-2.5-3.7-4.3h20.7c-0.6-0.1-1.1-0.3-1.7-0.4l-6.4-1.6H96.1c-0.3-0.7-0.5-1.5-0.6-2.3h8.8
	c-0.4-0.3-0.7-0.6-1-0.8c-0.1-0.1-0.2-0.2-0.3-0.3h-7.7c-0.1-0.7-0.1-1.3-0.1-2c0-4.8,1.8-8.7,5.3-11.6c3.6-2.9,8.1-4.4,13.7-4.4
	c4,0,7.6,0.8,10.9,2.3c-1.4-1.3-3.2-2.3-5.3-3.2C117.4,384.5,114.7,384,111.5,384"/>
<path class="st2" d="M130.8,424.7H125c0.2,0.7,0.4,1.5,0.4,2.3c0,1.1-0.3,2-0.8,2.9h5.5C130.6,428.3,130.8,426.6,130.8,424.7
	C130.8,424.8,130.8,424.8,130.8,424.7"/>
<path class="st2" d="M117.7,409.7H96.9c1,1.8,2.2,3.3,3.7,4.3c1.6,0.9,3.5,1.7,5.6,2.3l7.8,2c1.6,0.4,3,0.8,4,1.4l0.7,0.2
	c0.6,0.2,1.2,0.3,1.7,0.5h9.8c-0.6-2.1-1.7-3.9-3.2-5.6C124.8,412.5,121.7,410.7,117.7,409.7"/>
<path class="st2" d="M114.1,386.3c-5.6,0-10.1,1.5-13.7,4.4c-3.6,2.9-5.3,6.8-5.3,11.6c0,0.7,0,1.4,0.1,2h7.7
	c-0.8-1-1.2-2.4-1.2-4.2c0-1,0.2-1.9,0.7-2.9c0.5-0.9,1.1-1.8,2-2.5c0.9-0.7,1.9-1.3,3.1-1.8c1.2-0.5,2.5-0.7,4-0.7
	c1.8,0,3.3,0.3,4.6,0.8c1,0.4,1.9,0.9,2.6,1.5c2.7,0.9,4.6,2.7,5.5,5.5l5.9-2c-0.2-1.4-0.6-3-1.4-4.7c-0.7-1.7-1.9-3.2-3.4-4.6
	c-0.1-0.1-0.2-0.2-0.3-0.3C121.8,387.1,118.1,386.3,114.1,386.3"/>
<path class="st2" d="M129.3,431.9h-6.5c-0.1,0.1-0.2,0.1-0.2,0.2c-1.8,1.4-4.5,2.1-7.9,2.1c-3.5,0-6.3-0.6-8.4-1.7v8.6
	c1.1,0.3,2.3,0.5,3.6,0.7c0.5,0,1.1,0,1.6,0c3.2,0,6-0.5,8.4-1.4c2.4-1,4.5-2.2,6.1-3.8C127.4,435.1,128.5,433.6,129.3,431.9"/>
<path class="st2" d="M104.3,405.5h-8.8c0.2,0.8,0.4,1.5,0.6,2.3h13.5l-1.3-0.3C106.6,406.8,105.2,406.1,104.3,405.5"/>
<path class="st1" d="M165.9,418h-13.4v0.6h6.3L171,441h10.8l-0.5-0.8h-7.3l-3.4-9.3h5.6l-1.1-2H170l-1.9-5.2h4.2l-2.4-4.2h-3.4
	L165.9,418 M168,394.2c0.5,0.3,0.9,0.6,1.3,1c1.7,1.6,2.5,3.7,2.5,6.5c0,2.7-0.8,4.9-2.5,6.5c-1,1-2.4,1.7-4,2
	c2.3-0.1,4.2-0.6,5.7-1.4h9.5c0.3-0.6,0.5-1.3,0.7-2h-8.1c0.5-0.7,0.8-1.4,1.1-2.3h7.5c0.1-0.4,0.1-0.7,0.1-1.1h-7.4
	c0.1-0.5,0.1-1,0.1-1.5c0-2.4-0.8-4.3-2.5-5.8C171,395.2,169.6,394.5,168,394.2 M164.4,384.7H142v37h10.1v-2.2H143v-10.8h9.1v-2H143
	v-2.3h9.1v-1.1H143v-17.2h22.9c3.1,0,5.8,0.4,8.1,1.1c-0.7-0.4-1.5-0.8-2.4-1.2C169.5,385.2,167.1,384.7,164.4,384.7"/>
<polyline class="st2" points="172.3,423.8 168.1,423.8 170,429 175.2,429 172.3,423.8 "/>
<path class="st2" d="M180.5,408.8H171c-1.4,0.9-3.3,1.3-5.7,1.4c-0.9,0.2-2,0.3-3.1,0.3h-10.1v-1.8H143v10.8h9.1v-0.9h0.4V418h13.4
	l0.6,1.5h3.4l-0.9-1.5c4.1-1,7.2-3,9.4-5.9C179.3,411.1,180,410,180.5,408.8"/>
<polyline class="st2" points="152.1,404.5 143,404.5 143,406.8 152.1,406.8 152.1,404.5 "/>
<path class="st2" d="M165.9,386.2H143v17.2h9.1v-10.5h10.1c2.3,0,4.2,0.5,5.7,1.4c1.7,0.3,3,1,4.1,1.9c1.6,1.5,2.5,3.4,2.5,5.8
	c0,0.5,0,1-0.1,1.5h7.4c0-0.6,0.1-1.1,0.1-1.7c0-2.4-0.4-4.6-1.2-6.6c-0.8-2.1-2-3.9-3.5-5.4c-0.9-0.9-2-1.7-3.1-2.4
	C171.8,386.6,169,386.2,165.9,386.2"/>
<polyline class="st2" points="176.3,431 170.7,431 174.1,440.2 181.4,440.2 176.3,431 "/>
<path class="st2" d="M181.7,404.5h-7.5c-0.2,0.8-0.6,1.6-1.1,2.3h8.1C181.4,406.1,181.6,405.3,181.7,404.5"/>
<path class="st1" d="M206.3,440.5l0,0.2c2.4,0.8,4.9,1.2,7.5,1.2c0.9,0,1.9,0,2.8-0.1c-0.4,0-0.9,0-1.3,0
	C211.8,441.7,208.8,441.3,206.3,440.5 M226.9,420.2v-10.8h8.2v10.8H226.9 M226.9,407.5v-2.3h8.2v2.3H226.9 M226.9,404.1v-17.2h8.2
	v17.2H226.9 M235.2,384.8h-10.1v35.5c0,4-1,7.2-2.9,9.4c-1.7,2-4.1,3.1-7.3,3.4c0.4,0,0.9,0.1,1.3,0.1c2.6,0,4.7-0.5,6.5-1.5h10
	c0.3-0.5,0.6-1.1,0.8-1.7c0-0.1,0.1-0.2,0.1-0.3H225c0.9-1.3,1.5-3,1.7-5.2h8.2l0,0c0,0.2,0,0.4,0,0.6c0.2-1.2,0.3-2.5,0.3-3.9
	V384.8"/>
<polyline class="st1" points="202.4,384.8 193.1,384.8 193.1,421.5 202.4,421.5 202.4,420.2 195.3,420.2 195.3,409.5 202.4,409.5 
	202.4,407.5 195.3,407.5 195.3,405.2 202.4,405.2 202.4,404.1 195.3,404.1 195.3,386.9 202.4,386.9 202.4,384.8 "/>
<path class="st1" d="M323.9,440.2h-9.4v0.8h9.4V440.2 M323.9,429h-9.4v2h9.4V429 M323.9,419.5h-9.4v4.2h9.4V419.5 M323.9,406.8h-9.4
	v2h9.4V406.8 M323.9,403.4h-9.4v1.1h9.4V403.4 M331,384.8h-34.7v8.8h2.8v-7.5H331V384.8"/>
<path class="st1" d="M287.8,404.9L287.8,404.9c-0.1,0.8-0.2,1.5-0.4,2.3h-9.6c0.4-0.7,0.7-1.4,0.8-2.3H287.8 M269.9,384.8h-20.9v9.8
	h2.9v-8.1h19.5c5.6,0,9.7,1.6,12.4,4.8c2.7,3.2,4,6.9,4,11.3c0,0.4,0,0.8,0,1.2h-9c0-0.3,0-0.7,0-1c0-0.6-0.1-1.3-0.2-1.8
	c0,0.3,0,0.6,0,0.9c0,2.7-0.9,4.9-2.8,6.4c-1.8,1.6-4.3,2.3-7.3,2.3h-1.5l0.3,0.3h3.3c2.3,0,4.2-0.6,5.5-1.7h10.6
	c0-0.1,0.1-0.2,0.1-0.3c0.8-2.2,1.2-4.5,1.2-7c0-2.4-0.4-4.6-1.2-6.6c-0.8-2.1-2-3.9-3.6-5.4c-1.5-1.5-3.5-2.7-5.7-3.6
	C275.4,385.3,272.8,384.8,269.9,384.8"/>
<path class="st1" d="M263.1,419.2h-2.6v0.2h2.6V419.2 M263.1,410.5h-2.6v0.3h2.6V410.5 M251.9,398.8h-2.9V441h10.1v-0.4h-7.2v-9.3
	h7.2v-2h-7.2v-5.2h7.2v-4.2h-7.2v-10.8h7.2v-2h-7.2v-2.3h7.2v-1.1h-7.2V398.8"/>
<g>
	<polygon class="st1" points="336.5,8 302.4,8 302.4,126 277,151.3 252,126.4 252,44.1 217.2,44.1 217.2,140.8 252.4,175.4 
		217.2,209.8 217.2,339.7 252,339.7 252,224.8 277.1,199.6 302.4,224.3 302.4,307 336.5,306.6 336.5,209.9 301.4,175.8 336.5,141 	
		"/>
	<rect x="156.6" y="8" class="st1" width="34.7" height="331.7"/>
	<polygon class="st1" points="128.7,106.8 128.7,8 93.9,8 9.5,42.8 9.5,141 93.9,223.9 93.9,286.2 43.5,306.7 43.5,243 9.5,243 
		9.5,339.7 43.9,339.7 128.7,306.7 128.7,208.9 43.5,125.9 43.5,63.2 93.9,42.7 93.9,106.8 	"/>
</g>
<g>
	<path class="st2" d="M235,424.5h-8.2c-0.3,2.2-0.8,4-1.7,5.2h8.7c0.6-1.4,1-3,1.2-4.6C235,424.8,235,424.7,235,424.5"/>
	<polyline class="st2" points="235.1,386.9 226.9,386.9 226.9,404.1 235.1,404.1 235.1,386.9 	"/>
	<path class="st2" d="M232.8,431.7h-10c-1.7,1-3.9,1.5-6.5,1.5c-0.5,0-0.9,0-1.3-0.1c-0.4,0-0.8,0-1.2,0c-2,0-3.9-0.5-5.5-1.4
		l-2,8.7c2.5,0.9,5.5,1.3,8.9,1.3c0.5,0,0.9,0,1.3,0c2-0.2,3.9-0.6,5.7-1.2c2.6-0.9,4.9-2.2,6.8-4
		C230.5,435.1,231.8,433.5,232.8,431.7"/>
	<polyline class="st2" points="235.1,409.5 226.9,409.5 226.9,420.2 235.1,420.2 235.1,409.5 	"/>
	<polyline class="st2" points="235.1,405.2 226.9,405.2 226.9,407.5 235.1,407.5 235.1,405.2 	"/>
	<polyline class="st2" points="202.4,405.2 195.3,405.2 195.3,407.5 202.4,407.5 202.4,405.2 	"/>
	<polyline class="st2" points="202.4,409.5 195.3,409.5 195.3,420.2 202.4,420.2 202.4,409.5 	"/>
	<polyline class="st2" points="202.4,386.9 195.3,386.9 195.3,404.1 202.4,404.1 202.4,386.9 	"/>
	<polyline class="st2" points="323.9,408.8 314.5,408.8 314.5,419.5 323.9,419.5 323.9,408.8 	"/>
	<polyline class="st2" points="323.9,423.8 314.5,423.8 314.5,429 323.9,429 323.9,423.8 	"/>
	<polyline class="st2" points="331,386.2 299.1,386.2 299.1,393.7 314.5,393.7 314.5,403.4 323.9,403.4 323.9,393.7 331,393.7 
		331,386.2 	"/>
	<polyline class="st2" points="323.9,431 314.5,431 314.5,440.2 323.9,440.2 323.9,431 	"/>
	<polyline class="st2" points="323.9,404.5 314.5,404.5 314.5,406.8 323.9,406.8 323.9,404.5 	"/>
	<path class="st2" d="M286.8,409.1h-10.6c-1.4,1.1-3.2,1.7-5.5,1.7h-3.3l6.6,8.2c1.3-0.2,2.5-0.5,3.6-1c2.3-0.9,4.2-2.1,5.7-3.7
		C284.8,412.9,286,411.2,286.8,409.1"/>
	<path class="st2" d="M287.8,404.9h-9.1c-0.2,0.8-0.4,1.6-0.8,2.3h9.6C287.6,406.4,287.7,405.7,287.8,404.9"/>
	<path class="st2" d="M271.5,386.6h-19.5v8.1h7.2v-1.7h9.5c3.1,0,5.5,0.8,7.3,2.4c1.6,1.4,2.6,3.3,2.7,5.6c0.1,0.6,0.2,1.2,0.2,1.8
		c0,0.4,0,0.7,0,1h9c0-0.4,0-0.8,0-1.2c0-4.3-1.3-8.1-4-11.3C281.2,388.2,277,386.6,271.5,386.6"/>
	<polyline class="st2" points="259.1,409.1 251.9,409.1 251.9,419.9 259.1,419.9 259.1,419.4 260.5,419.4 260.5,419.2 263.1,419.2 
		263.1,410.8 260.5,410.8 260.5,410.5 259.1,410.5 259.1,409.1 	"/>
	<polyline class="st2" points="259.1,424.2 251.9,424.2 251.9,429.4 259.1,429.4 259.1,424.2 	"/>
	<polyline class="st2" points="259.1,404.9 251.9,404.9 251.9,407.2 259.1,407.2 259.1,404.9 	"/>
	<polyline class="st2" points="259.1,431.3 251.9,431.3 251.9,440.6 259.1,440.6 259.1,431.3 	"/>
	<polyline class="st2" points="259.1,398.8 251.9,398.8 251.9,403.8 259.1,403.8 259.1,398.8 	"/>
</g>
<g>
	<path class="st2" d="M15.8,365.7c0.1,0.5,0.2,0.9,0.4,1.2c0.4,0.5,1.1,0.7,2,0.7c0.6,0,1-0.1,1.4-0.2c0.7-0.2,1-0.7,1-1.3
		c0-0.4-0.2-0.7-0.5-0.9c-0.3-0.2-0.9-0.4-1.6-0.5l-1.2-0.3c-1.2-0.3-2-0.6-2.5-0.9c-0.8-0.5-1.1-1.3-1.1-2.4c0-1,0.4-1.8,1.1-2.5
		c0.7-0.7,1.8-1,3.3-1c1.2,0,2.2,0.3,3.1,0.9c0.8,0.6,1.3,1.5,1.3,2.7h-2.3c0-0.7-0.3-1.2-0.9-1.4c-0.4-0.2-0.8-0.3-1.4-0.3
		c-0.6,0-1.1,0.1-1.5,0.4s-0.6,0.6-0.6,1c0,0.4,0.2,0.7,0.5,0.9c0.2,0.1,0.7,0.3,1.5,0.5l2,0.5c0.9,0.2,1.5,0.5,2,0.8
		c0.7,0.5,1,1.3,1,2.3c0,1-0.4,1.9-1.2,2.6c-0.8,0.7-1.9,1-3.4,1c-1.5,0-2.7-0.3-3.5-1c-0.9-0.7-1.3-1.6-1.3-2.8H15.8z"/>
	<path class="st2" d="M36.2,357.9v2h-3.4v9.3h-2.4v-9.3h-3.4v-2H36.2z"/>
	<path class="st2" d="M43.1,357.9h2.7l4,11.3h-2.6l-0.7-2.3h-4.2l-0.8,2.3h-2.5L43.1,357.9z M43,365h2.9l-1.4-4.4L43,365z"/>
	<path class="st2" d="M61.9,358.2c0.4,0.2,0.8,0.4,1.1,0.8c0.2,0.3,0.4,0.6,0.6,0.9c0.1,0.3,0.2,0.7,0.2,1.2c0,0.5-0.1,1.1-0.4,1.6
		s-0.7,0.9-1.3,1.1c0.5,0.2,0.9,0.5,1.1,0.9c0.2,0.4,0.3,1,0.3,1.8v0.8c0,0.5,0,0.9,0.1,1c0.1,0.3,0.2,0.5,0.4,0.6v0.3h-2.6
		c-0.1-0.3-0.1-0.5-0.2-0.6c-0.1-0.3-0.1-0.6-0.1-1l0-1c0-0.7-0.1-1.2-0.4-1.4c-0.2-0.2-0.7-0.4-1.3-0.4H57v4.4h-2.3v-11.3h5.4
		C60.9,358,61.5,358.1,61.9,358.2z M57,359.9v3h2.5c0.5,0,0.9-0.1,1.1-0.2c0.4-0.2,0.7-0.6,0.7-1.3c0-0.7-0.2-1.1-0.6-1.4
		c-0.2-0.1-0.6-0.2-1.1-0.2H57z"/>
	<path class="st2" d="M77.8,359.1c0.3,0.5,0.5,1.1,0.5,1.7c0,0.7-0.2,1.2-0.5,1.7c-0.2,0.2-0.5,0.4-0.9,0.6c0.6,0.2,1,0.5,1.3,1
		c0.3,0.5,0.4,1,0.4,1.7c0,0.7-0.2,1.3-0.5,1.8c-0.2,0.4-0.5,0.6-0.8,0.9c-0.4,0.3-0.8,0.5-1.3,0.6c-0.5,0.1-1,0.2-1.6,0.2h-5.1
		v-11.3h5.4C76.3,358,77.3,358.4,77.8,359.1z M71.7,359.9v2.5h2.7c0.5,0,0.9-0.1,1.2-0.3s0.5-0.5,0.5-1c0-0.5-0.2-0.9-0.6-1
		c-0.3-0.1-0.8-0.2-1.3-0.2H71.7z M71.7,364.3v3h2.7c0.5,0,0.9-0.1,1.1-0.2c0.5-0.2,0.7-0.7,0.7-1.4c0-0.6-0.2-1-0.7-1.2
		c-0.3-0.1-0.6-0.2-1.1-0.2H71.7z"/>
	<path class="st2" d="M84.2,357.9h2.4v6.9c0,0.8,0.1,1.3,0.3,1.7c0.3,0.6,0.9,0.9,1.9,0.9c1,0,1.6-0.3,1.9-0.9
		c0.2-0.4,0.3-0.9,0.3-1.7v-6.9h2.4v6.9c0,1.2-0.2,2.1-0.6,2.8c-0.7,1.2-2,1.8-4,1.8c-2,0-3.3-0.6-4-1.8c-0.4-0.7-0.6-1.6-0.6-2.8
		V357.9z"/>
	<path class="st2" d="M100,359.1c0.9-0.9,2.1-1.4,3.5-1.4c1.9,0,3.2,0.6,4.1,1.9c0.5,0.7,0.7,1.4,0.8,2.1H106
		c-0.2-0.5-0.3-0.9-0.6-1.2c-0.4-0.5-1-0.7-1.9-0.7c-0.8,0-1.5,0.3-2,1s-0.7,1.7-0.7,2.9s0.3,2.2,0.8,2.8c0.5,0.6,1.2,0.9,1.9,0.9
		c0.8,0,1.4-0.3,1.8-0.8c0.2-0.3,0.4-0.7,0.6-1.3h2.3c-0.2,1.2-0.7,2.2-1.5,3c-0.8,0.8-1.9,1.2-3.2,1.2c-1.6,0-2.9-0.5-3.8-1.6
		c-0.9-1-1.4-2.5-1.4-4.3C98.5,361.7,99,360.2,100,359.1z"/>
	<path class="st2" d="M113.7,357.9h2.3v4.6l4.4-4.6h3l-4.6,4.6l4.9,6.6h-3l-3.5-4.9l-1.1,1.2v3.8h-2.3V357.9z"/>
	<path class="st2" d="M130.2,365.7c0.1,0.5,0.2,0.9,0.4,1.2c0.4,0.5,1.1,0.7,2,0.7c0.6,0,1-0.1,1.4-0.2c0.7-0.2,1-0.7,1-1.3
		c0-0.4-0.2-0.7-0.5-0.9c-0.3-0.2-0.9-0.4-1.6-0.5l-1.2-0.3c-1.2-0.3-2-0.6-2.5-0.9c-0.8-0.5-1.1-1.3-1.1-2.4c0-1,0.4-1.8,1.1-2.5
		c0.7-0.7,1.8-1,3.3-1c1.2,0,2.2,0.3,3.1,0.9c0.8,0.6,1.3,1.5,1.3,2.7h-2.3c0-0.7-0.3-1.2-0.9-1.4c-0.4-0.2-0.8-0.3-1.4-0.3
		c-0.6,0-1.1,0.1-1.5,0.4s-0.6,0.6-0.6,1c0,0.4,0.2,0.7,0.5,0.9c0.2,0.1,0.7,0.3,1.5,0.5l2,0.5c0.9,0.2,1.5,0.5,2,0.8
		c0.7,0.5,1,1.3,1,2.3c0,1-0.4,1.9-1.2,2.6c-0.8,0.7-1.9,1-3.4,1c-1.5,0-2.7-0.3-3.5-1c-0.9-0.7-1.3-1.6-1.3-2.8H130.2z"/>
	<path class="st2" d="M152.3,369.2H150v-11.3h2.3V369.2z"/>
	<path class="st2" d="M157.9,357.9h2.5l4.5,7.9v-7.9h2.2v11.3h-2.4l-4.6-8v8h-2.2V357.9z"/>
	<path class="st2" d="M172.7,357.9h2.5l4.5,7.9v-7.9h2.2v11.3h-2.4l-4.6-8v8h-2.2V357.9z"/>
	<path class="st2" d="M196.2,368.2c-0.9,0.9-2.1,1.3-3.7,1.3c-1.6,0-2.8-0.4-3.7-1.3c-1.1-1.1-1.7-2.6-1.7-4.7
		c0-2.1,0.6-3.6,1.7-4.7c0.9-0.9,2.1-1.3,3.7-1.3c1.6,0,2.8,0.4,3.7,1.3c1.1,1,1.7,2.6,1.7,4.7C197.9,365.6,197.3,367.1,196.2,368.2
		z M194.7,366.5c0.5-0.7,0.8-1.7,0.8-2.9c0-1.3-0.3-2.2-0.8-2.9s-1.3-1-2.2-1c-0.9,0-1.7,0.3-2.2,1c-0.6,0.7-0.8,1.7-0.8,2.9
		c0,1.3,0.3,2.2,0.8,2.9c0.6,0.7,1.3,1,2.2,1C193.4,367.5,194.2,367.2,194.7,366.5z"/>
	<path class="st2" d="M209.7,357.9h2.4l-3.8,11.3h-2.2l-3.8-11.3h2.5l2.4,8.6L209.7,357.9z"/>
	<path class="st2" d="M219.1,357.9h2.7l4,11.3h-2.6l-0.7-2.3h-4.2l-0.8,2.3h-2.5L219.1,357.9z M218.9,365h2.9l-1.4-4.4L218.9,365z"
		/>
	<path class="st2" d="M237.7,357.9v2h-3.4v9.3h-2.4v-9.3h-3.4v-2H237.7z"/>
	<path class="st2" d="M244.6,369.2h-2.3v-11.3h2.3V369.2z"/>
	<path class="st2" d="M259,368.2c-0.9,0.9-2.1,1.3-3.7,1.3c-1.6,0-2.8-0.4-3.7-1.3c-1.1-1.1-1.7-2.6-1.7-4.7c0-2.1,0.6-3.6,1.7-4.7
		c0.9-0.9,2.1-1.3,3.7-1.3c1.6,0,2.8,0.4,3.7,1.3c1.1,1,1.7,2.6,1.7,4.7C260.7,365.6,260.1,367.1,259,368.2z M257.5,366.5
		c0.5-0.7,0.8-1.7,0.8-2.9c0-1.3-0.3-2.2-0.8-2.9s-1.3-1-2.2-1s-1.7,0.3-2.2,1c-0.6,0.7-0.8,1.7-0.8,2.9c0,1.3,0.3,2.2,0.8,2.9
		c0.6,0.7,1.3,1,2.2,1S257,367.2,257.5,366.5z"/>
	<path class="st2" d="M265.9,357.9h2.5l4.5,7.9v-7.9h2.2v11.3h-2.4l-4.6-8v8h-2.2V357.9z"/>
	<path class="st2" d="M296.8,359.9h-6v2.4h5.5v2h-5.5v2.9h6.2v2h-8.5v-11.3h8.3V359.9z"/>
	<path class="st2" d="M304.2,369.2h-2.7l3.6-5.7l-3.4-5.5h2.8l2,3.7l2.1-3.7h2.7l-3.4,5.4l3.7,5.8h-2.9l-2.1-3.8L304.2,369.2z"/>
	<path class="st2" d="M323.9,364.3c-0.7,0.6-1.6,0.8-2.8,0.8h-2.3v4.1h-2.3v-11.3h4.8c1.1,0,2,0.3,2.7,0.9s1,1.5,1,2.7
		C324.8,362.8,324.5,363.8,323.9,364.3z M322.1,360.3c-0.3-0.2-0.7-0.4-1.3-0.4h-2.1v3.3h2.1c0.5,0,1-0.1,1.3-0.4
		c0.3-0.3,0.4-0.7,0.4-1.3C322.5,360.9,322.4,360.5,322.1,360.3z"/>
	<path class="st2" d="M338.9,368.2c-0.9,0.9-2.1,1.3-3.7,1.3s-2.8-0.4-3.7-1.3c-1.1-1.1-1.7-2.6-1.7-4.7c0-2.1,0.6-3.6,1.7-4.7
		c0.9-0.9,2.1-1.3,3.7-1.3s2.8,0.4,3.7,1.3c1.1,1,1.7,2.6,1.7,4.7C340.6,365.6,340,367.1,338.9,368.2z M337.4,366.5
		c0.5-0.7,0.8-1.7,0.8-2.9c0-1.3-0.3-2.2-0.8-2.9s-1.3-1-2.2-1c-0.9,0-1.7,0.3-2.2,1c-0.6,0.7-0.8,1.7-0.8,2.9
		c0,1.3,0.3,2.2,0.8,2.9c0.6,0.7,1.3,1,2.2,1C336.1,367.5,336.8,367.2,337.4,366.5z"/>
</g>
<g>
	<polygon class="st2" points="340.5,11.4 306.5,11.4 306.5,129.4 281,154.7 256.1,129.8 256.1,47.5 221.3,47.5 221.3,144.2 
		256.5,178.8 221.3,213.2 221.3,343.2 256.1,343.2 256.1,228.2 281.2,203 306.5,227.7 306.5,310.5 340.5,310 340.5,213.3 
		305.5,179.2 340.5,144.5 	"/>
	<rect x="160.7" y="11.4" class="st2" width="34.7" height="331.7"/>
	<polygon class="st2" points="132.8,110.2 132.8,11.4 97.9,11.4 13.6,46.2 13.6,144.4 98,227.3 98,289.6 47.6,310.1 47.6,246.4 
		13.6,246.4 13.6,343.2 47.9,343.2 132.8,310.1 132.8,212.3 47.6,129.3 47.6,66.6 98,46.1 98,110.2 	"/>
</g>
</svg>
