<?xml version="1.0" encoding="UTF-8"?>
<svg width="19px" height="18px" viewBox="0 0 19 18" version="1.1" xmlns="http://www.w3.org/2000/svg" xmlns:xlink="http://www.w3.org/1999/xlink">
    <!-- Generator: Sketch 47.1 (45422) - http://www.bohemiancoding.com/sketch -->
    <title>ic_clock</title>
    <desc>Created with Sketch.</desc>
    <defs></defs>
    <g id="Home" stroke="none" stroke-width="1" fill="none" fill-rule="evenodd">
        <g id="SIX_details_add" transform="translate(-13.000000, -83.000000)">
            <g id="ic_clock" transform="translate(10.000000, 80.000000)">
                <g id="03_Iconography/Default/Alarm_Dark">
                    <g id="Icons/Alarm" fill="#D8D8D8" opacity="0">
                        <rect id="Bounds" x="0" y="0" width="24" height="24"></rect>
                    </g>
                    <g id="Layer_1" opacity="0.600000024" transform="translate(3.000000, 4.000000)" stroke-linecap="round" stroke="#000000" stroke-linejoin="round">
                        <g id="Group">
                            <circle id="Oval" cx="9.37058824" cy="8.33823529" r="5.55882353"></circle>
                            <path d="M5.71764706,0.926470588 C4.62857143,-0.132352941 2.85882353,-0.132352941 1.7697479,0.926470588 C0.680672269,1.98529412 0.680672269,3.70588235 1.7697479,4.76470588 L5.71764706,0.926470588 L5.71764706,0.926470588 Z" id="Shape"></path>
                            <path d="M16.9478992,4.63235294 C18.0369748,3.57352941 18.0369748,1.85294118 16.9478992,0.794117647 C15.8588235,-0.264705882 14.0890756,-0.264705882 13,0.794117647 L16.9478992,4.63235294 L16.9478992,4.63235294 Z" id="Shape"></path>
                            <path d="M9,5.42647059 L9,8.60294118" id="Shape"></path>
                            <path d="M9,8.65683122 L10.5504557,10.2503255" id="Shape"></path>
                            <path d="M4.76470588,14.0294118 L2.99495798,15.75" id="Shape"></path>
                            <path d="M14.4302521,13.8970588 L15.9277311,15.3529412" id="Shape"></path>
                        </g>
                    </g>
                </g>
            </g>
        </g>
    </g>
</svg>