<?xml version="1.0" encoding="UTF-8"?>
<svg width="48px" height="48px" viewBox="0 0 48 48" version="1.1" xmlns="http://www.w3.org/2000/svg" xmlns:xlink="http://www.w3.org/1999/xlink">
    <!-- Generator: Sketch 47.1 (45422) - http://www.bohemiancoding.com/sketch -->
    <title>ic_keynote</title>
    <desc>Created with Sketch.</desc>
    <defs>
        <circle id="path-1" cx="22" cy="22" r="22"></circle>
        <filter x="-9.1%" y="-4.5%" width="118.2%" height="118.2%" filterUnits="objectBoundingBox" id="filter-2">
            <feOffset dx="0" dy="2" in="SourceAlpha" result="shadowOffsetOuter1"></feOffset>
            <feGaussianBlur stdDeviation="1" in="shadowOffsetOuter1" result="shadowBlurOuter1"></feGaussianBlur>
            <feColorMatrix values="0 0 0 0 0.4   0 0 0 0 0.4   0 0 0 0 0.4  0 0 0 0.5 0" type="matrix" in="shadowBlurOuter1"></feColorMatrix>
        </filter>
    </defs>
    <g id="Home" stroke="none" stroke-width="1" fill="none" fill-rule="evenodd">
        <g id="SIX_nav" transform="translate(-254.000000, -226.000000)">
            <g id="ic_keynote" transform="translate(256.000000, 226.000000)">
                <g id="Oval">
                    <use fill="black" fill-opacity="1" filter="url(#filter-2)" xlink:href="#path-1"></use>
                    <use fill="#8E44AD" fill-rule="evenodd" xlink:href="#path-1"></use>
                </g>
                <g transform="translate(11.000000, 6.000000)">
                    <path d="M15,3 C15,4.65709924 13.6573042,6 12.0004579,6 C10.3436117,6 9,4.65709924 9,3 C9,1.34290076 10.3436117,0 12.0004579,0 C13.6573042,0 15,1.34290076 15,3 Z" id="Stroke-1" stroke="#FFFFFF"></path>
                    <polygon id="Stroke-3" stroke="#FFFFFF" stroke-linecap="round" stroke-linejoin="round" points="6 32 17 32 17 17 6 17"></polygon>
                    <path d="M6,13.673913 C6.15555556,10.5118012 8.55641026,8 11.4965812,8 C14.5350427,8 17,10.6860248 17,14 L6,13.673913 Z" id="Stroke-5" stroke="#FFFFFF"></path>
                    <polyline id="Stroke-6" stroke="#FFFFFF" stroke-linecap="round" stroke-linejoin="round" points="3 13 3 7.61492355 5 6"></polyline>
                    <polygon id="Fill-7" fill="#8E44AD" points="20.3407891 18 1.65921088 18 0 13 22 13"></polygon>
                    <polygon id="Stroke-8" stroke="#FFFFFF" stroke-linecap="round" stroke-linejoin="round" points="20.3407891 18 1.65921088 18 0 13 22 13"></polygon>
                </g>
            </g>
        </g>
    </g>
</svg>